<svg xmlns="http://www.w3.org/2000/svg" version="1.1" xmlns:xlink="http://www.w3.org/1999/xlink" xmlns:svgjs="http://svgjs.dev/svgjs" width="1440" height="560" preserveAspectRatio="none" viewBox="0 0 1440 560"><g mask="url(&quot;#SvgjsMask1001&quot;)" fill="none"><path d="M19.6 174.46L84.55 211.96L84.55 286.96L19.6 324.46L-45.35 286.96L-45.35 211.96zM214.46 286.96L279.42 324.46L279.42 399.46L214.46 436.96L149.51 399.46L149.51 324.46zM344.37 286.96L409.32 324.46L409.32 399.46L344.37 436.96L279.42 399.46L279.42 324.46zM279.42 399.46L344.37 436.96L344.37 511.96L279.42 549.46L214.46 511.96L214.46 436.96zM474.28 61.96L539.23 99.46L539.23 174.46L474.28 211.96L409.32 174.46L409.32 99.46zM409.32 399.46L474.28 436.96L474.28 511.96L409.32 549.46L344.37 511.96L344.37 436.96zM474.28 511.96L539.23 549.46L539.23 624.46L474.28 661.96L409.32 624.46L409.32 549.46zM604.18 286.96L669.14 324.46L669.14 399.46L604.18 436.96L539.23 399.46L539.23 324.46zM669.14 -50.54L734.09 -13.04L734.09 61.96L669.14 99.46L604.18 61.96L604.18 -13.04zM734.09 61.96L799.05 99.46L799.05 174.46L734.09 211.96L669.14 174.46L669.14 99.46zM799.04 -50.54L864 -13.04L864 61.96L799.04 99.46L734.09 61.96L734.09 -13.04zM799.04 399.46L864 436.96L864 511.96L799.04 549.46L734.09 511.96L734.09 436.96zM864 511.96L928.95 549.46L928.95 624.46L864 661.96L799.04 624.46L799.04 549.46zM928.95 -50.54L993.91 -13.04L993.91 61.96L928.95 99.46L864 61.96L864 -13.04zM993.91 61.96L1058.86 99.46L1058.86 174.46L993.91 211.96L928.95 174.46L928.95 99.46zM993.91 286.96L1058.86 324.46L1058.86 399.46L993.91 436.96L928.95 399.46L928.95 324.46zM928.95 399.46L993.91 436.96L993.91 511.96L928.95 549.46L864 511.96L864 436.96zM1058.86 -50.54L1123.81 -13.04L1123.81 61.96L1058.86 99.46L993.91 61.96L993.91 -13.04zM1058.86 174.46L1123.81 211.96L1123.81 286.96L1058.86 324.46L993.91 286.96L993.91 211.96zM1058.86 399.46L1123.81 436.96L1123.81 511.96L1058.86 549.46L993.91 511.96L993.91 436.96zM1188.77 174.46L1253.72 211.96L1253.72 286.96L1188.77 324.46L1123.81 286.96L1123.81 211.96zM1253.72 286.96L1318.67 324.46L1318.67 399.46L1253.72 436.96L1188.77 399.46L1188.77 324.46zM1383.63 61.96L1448.58 99.46L1448.58 174.46L1383.63 211.96L1318.67 174.46L1318.67 99.46zM1383.63 286.96L1448.58 324.46L1448.58 399.46L1383.63 436.96L1318.67 399.46L1318.67 324.46zM1318.67 399.46L1383.63 436.96L1383.63 511.96L1318.67 549.46L1253.72 511.96L1253.72 436.96zM1383.63 511.96L1448.58 549.46L1448.58 624.46L1383.63 661.96L1318.67 624.46L1318.67 549.46zM1448.58 174.46L1513.54 211.96L1513.54 286.96L1448.58 324.46L1383.63 286.96L1383.63 211.96zM1513.54 286.96L1578.49 324.46L1578.49 399.46L1513.54 436.96L1448.58 399.46L1448.58 324.46zM1448.58 399.46L1513.54 436.96L1513.54 511.96L1448.58 549.46L1383.63 511.96L1383.63 436.96zM1513.54 511.96L1578.49 549.46L1578.49 624.46L1513.54 661.96L1448.58 624.46L1448.58 549.46z" stroke="#03305d" stroke-width="2"></path><path d="M12.1 174.46 a7.5 7.5 0 1 0 15 0 a7.5 7.5 0 1 0 -15 0zM77.05 211.96 a7.5 7.5 0 1 0 15 0 a7.5 7.5 0 1 0 -15 0zM77.05 286.96 a7.5 7.5 0 1 0 15 0 a7.5 7.5 0 1 0 -15 0zM12.1 324.46 a7.5 7.5 0 1 0 15 0 a7.5 7.5 0 1 0 -15 0zM-52.85 286.96 a7.5 7.5 0 1 0 15 0 a7.5 7.5 0 1 0 -15 0zM-52.85 211.96 a7.5 7.5 0 1 0 15 0 a7.5 7.5 0 1 0 -15 0zM206.96 286.96 a7.5 7.5 0 1 0 15 0 a7.5 7.5 0 1 0 -15 0zM271.92 324.46 a7.5 7.5 0 1 0 15 0 a7.5 7.5 0 1 0 -15 0zM271.92 399.46 a7.5 7.5 0 1 0 15 0 a7.5 7.5 0 1 0 -15 0zM206.96 436.96 a7.5 7.5 0 1 0 15 0 a7.5 7.5 0 1 0 -15 0zM142.01 399.46 a7.5 7.5 0 1 0 15 0 a7.5 7.5 0 1 0 -15 0zM142.01 324.46 a7.5 7.5 0 1 0 15 0 a7.5 7.5 0 1 0 -15 0zM336.87 286.96 a7.5 7.5 0 1 0 15 0 a7.5 7.5 0 1 0 -15 0zM401.82 324.46 a7.5 7.5 0 1 0 15 0 a7.5 7.5 0 1 0 -15 0zM401.82 399.46 a7.5 7.5 0 1 0 15 0 a7.5 7.5 0 1 0 -15 0zM336.87 436.96 a7.5 7.5 0 1 0 15 0 a7.5 7.5 0 1 0 -15 0zM336.87 511.96 a7.5 7.5 0 1 0 15 0 a7.5 7.5 0 1 0 -15 0zM271.92 549.46 a7.5 7.5 0 1 0 15 0 a7.5 7.5 0 1 0 -15 0zM206.96 511.96 a7.5 7.5 0 1 0 15 0 a7.5 7.5 0 1 0 -15 0zM466.78 61.96 a7.5 7.5 0 1 0 15 0 a7.5 7.5 0 1 0 -15 0zM531.73 99.46 a7.5 7.5 0 1 0 15 0 a7.5 7.5 0 1 0 -15 0zM531.73 174.46 a7.5 7.5 0 1 0 15 0 a7.5 7.5 0 1 0 -15 0zM466.78 211.96 a7.5 7.5 0 1 0 15 0 a7.5 7.5 0 1 0 -15 0zM401.82 174.46 a7.5 7.5 0 1 0 15 0 a7.5 7.5 0 1 0 -15 0zM401.82 99.46 a7.5 7.5 0 1 0 15 0 a7.5 7.5 0 1 0 -15 0zM466.78 436.96 a7.5 7.5 0 1 0 15 0 a7.5 7.5 0 1 0 -15 0zM466.78 511.96 a7.5 7.5 0 1 0 15 0 a7.5 7.5 0 1 0 -15 0zM401.82 549.46 a7.5 7.5 0 1 0 15 0 a7.5 7.5 0 1 0 -15 0zM531.73 549.46 a7.5 7.5 0 1 0 15 0 a7.5 7.5 0 1 0 -15 0zM531.73 624.46 a7.5 7.5 0 1 0 15 0 a7.5 7.5 0 1 0 -15 0zM466.78 661.96 a7.5 7.5 0 1 0 15 0 a7.5 7.5 0 1 0 -15 0zM401.82 624.46 a7.5 7.5 0 1 0 15 0 a7.5 7.5 0 1 0 -15 0zM596.68 286.96 a7.5 7.5 0 1 0 15 0 a7.5 7.5 0 1 0 -15 0zM661.64 324.46 a7.5 7.5 0 1 0 15 0 a7.5 7.5 0 1 0 -15 0zM661.64 399.46 a7.5 7.5 0 1 0 15 0 a7.5 7.5 0 1 0 -15 0zM596.68 436.96 a7.5 7.5 0 1 0 15 0 a7.5 7.5 0 1 0 -15 0zM531.73 399.46 a7.5 7.5 0 1 0 15 0 a7.5 7.5 0 1 0 -15 0zM531.73 324.46 a7.5 7.5 0 1 0 15 0 a7.5 7.5 0 1 0 -15 0zM661.64 -50.54 a7.5 7.5 0 1 0 15 0 a7.5 7.5 0 1 0 -15 0zM726.59 -13.04 a7.5 7.5 0 1 0 15 0 a7.5 7.5 0 1 0 -15 0zM726.59 61.96 a7.5 7.5 0 1 0 15 0 a7.5 7.5 0 1 0 -15 0zM661.64 99.46 a7.5 7.5 0 1 0 15 0 a7.5 7.5 0 1 0 -15 0zM596.68 61.96 a7.5 7.5 0 1 0 15 0 a7.5 7.5 0 1 0 -15 0zM596.68 -13.04 a7.5 7.5 0 1 0 15 0 a7.5 7.5 0 1 0 -15 0zM791.55 99.46 a7.5 7.5 0 1 0 15 0 a7.5 7.5 0 1 0 -15 0zM791.55 174.46 a7.5 7.5 0 1 0 15 0 a7.5 7.5 0 1 0 -15 0zM726.59 211.96 a7.5 7.5 0 1 0 15 0 a7.5 7.5 0 1 0 -15 0zM661.64 174.46 a7.5 7.5 0 1 0 15 0 a7.5 7.5 0 1 0 -15 0zM791.54 -50.54 a7.5 7.5 0 1 0 15 0 a7.5 7.5 0 1 0 -15 0zM856.5 -13.04 a7.5 7.5 0 1 0 15 0 a7.5 7.5 0 1 0 -15 0zM856.5 61.96 a7.5 7.5 0 1 0 15 0 a7.5 7.5 0 1 0 -15 0zM791.54 99.46 a7.5 7.5 0 1 0 15 0 a7.5 7.5 0 1 0 -15 0zM791.54 399.46 a7.5 7.5 0 1 0 15 0 a7.5 7.5 0 1 0 -15 0zM856.5 436.96 a7.5 7.5 0 1 0 15 0 a7.5 7.5 0 1 0 -15 0zM856.5 511.96 a7.5 7.5 0 1 0 15 0 a7.5 7.5 0 1 0 -15 0zM791.54 549.46 a7.5 7.5 0 1 0 15 0 a7.5 7.5 0 1 0 -15 0zM726.59 511.96 a7.5 7.5 0 1 0 15 0 a7.5 7.5 0 1 0 -15 0zM726.59 436.96 a7.5 7.5 0 1 0 15 0 a7.5 7.5 0 1 0 -15 0zM921.45 549.46 a7.5 7.5 0 1 0 15 0 a7.5 7.5 0 1 0 -15 0zM921.45 624.46 a7.5 7.5 0 1 0 15 0 a7.5 7.5 0 1 0 -15 0zM856.5 661.96 a7.5 7.5 0 1 0 15 0 a7.5 7.5 0 1 0 -15 0zM791.54 624.46 a7.5 7.5 0 1 0 15 0 a7.5 7.5 0 1 0 -15 0zM921.45 -50.54 a7.5 7.5 0 1 0 15 0 a7.5 7.5 0 1 0 -15 0zM986.41 -13.04 a7.5 7.5 0 1 0 15 0 a7.5 7.5 0 1 0 -15 0zM986.41 61.96 a7.5 7.5 0 1 0 15 0 a7.5 7.5 0 1 0 -15 0zM921.45 99.46 a7.5 7.5 0 1 0 15 0 a7.5 7.5 0 1 0 -15 0zM1051.36 99.46 a7.5 7.5 0 1 0 15 0 a7.5 7.5 0 1 0 -15 0zM1051.36 174.46 a7.5 7.5 0 1 0 15 0 a7.5 7.5 0 1 0 -15 0zM986.41 211.96 a7.5 7.5 0 1 0 15 0 a7.5 7.5 0 1 0 -15 0zM921.45 174.46 a7.5 7.5 0 1 0 15 0 a7.5 7.5 0 1 0 -15 0zM986.41 286.96 a7.5 7.5 0 1 0 15 0 a7.5 7.5 0 1 0 -15 0zM1051.36 324.46 a7.5 7.5 0 1 0 15 0 a7.5 7.5 0 1 0 -15 0zM1051.36 399.46 a7.5 7.5 0 1 0 15 0 a7.5 7.5 0 1 0 -15 0zM986.41 436.96 a7.5 7.5 0 1 0 15 0 a7.5 7.5 0 1 0 -15 0zM921.45 399.46 a7.5 7.5 0 1 0 15 0 a7.5 7.5 0 1 0 -15 0zM921.45 324.46 a7.5 7.5 0 1 0 15 0 a7.5 7.5 0 1 0 -15 0zM986.41 511.96 a7.5 7.5 0 1 0 15 0 a7.5 7.5 0 1 0 -15 0zM1051.36 -50.54 a7.5 7.5 0 1 0 15 0 a7.5 7.5 0 1 0 -15 0zM1116.31 -13.04 a7.5 7.5 0 1 0 15 0 a7.5 7.5 0 1 0 -15 0zM1116.31 61.96 a7.5 7.5 0 1 0 15 0 a7.5 7.5 0 1 0 -15 0zM1116.31 211.96 a7.5 7.5 0 1 0 15 0 a7.5 7.5 0 1 0 -15 0zM1116.31 286.96 a7.5 7.5 0 1 0 15 0 a7.5 7.5 0 1 0 -15 0zM1116.31 436.96 a7.5 7.5 0 1 0 15 0 a7.5 7.5 0 1 0 -15 0zM1116.31 511.96 a7.5 7.5 0 1 0 15 0 a7.5 7.5 0 1 0 -15 0zM1051.36 549.46 a7.5 7.5 0 1 0 15 0 a7.5 7.5 0 1 0 -15 0zM1181.27 174.46 a7.5 7.5 0 1 0 15 0 a7.5 7.5 0 1 0 -15 0zM1246.22 211.96 a7.5 7.5 0 1 0 15 0 a7.5 7.5 0 1 0 -15 0zM1246.22 286.96 a7.5 7.5 0 1 0 15 0 a7.5 7.5 0 1 0 -15 0zM1181.27 324.46 a7.5 7.5 0 1 0 15 0 a7.5 7.5 0 1 0 -15 0zM1311.17 324.46 a7.5 7.5 0 1 0 15 0 a7.5 7.5 0 1 0 -15 0zM1311.17 399.46 a7.5 7.5 0 1 0 15 0 a7.5 7.5 0 1 0 -15 0zM1246.22 436.96 a7.5 7.5 0 1 0 15 0 a7.5 7.5 0 1 0 -15 0zM1181.27 399.46 a7.5 7.5 0 1 0 15 0 a7.5 7.5 0 1 0 -15 0zM1376.13 61.96 a7.5 7.5 0 1 0 15 0 a7.5 7.5 0 1 0 -15 0zM1441.08 99.46 a7.5 7.5 0 1 0 15 0 a7.5 7.5 0 1 0 -15 0zM1441.08 174.46 a7.5 7.5 0 1 0 15 0 a7.5 7.5 0 1 0 -15 0zM1376.13 211.96 a7.5 7.5 0 1 0 15 0 a7.5 7.5 0 1 0 -15 0zM1311.17 174.46 a7.5 7.5 0 1 0 15 0 a7.5 7.5 0 1 0 -15 0zM1311.17 99.46 a7.5 7.5 0 1 0 15 0 a7.5 7.5 0 1 0 -15 0zM1376.13 286.96 a7.5 7.5 0 1 0 15 0 a7.5 7.5 0 1 0 -15 0zM1441.08 324.46 a7.5 7.5 0 1 0 15 0 a7.5 7.5 0 1 0 -15 0zM1441.08 399.46 a7.5 7.5 0 1 0 15 0 a7.5 7.5 0 1 0 -15 0zM1376.13 436.96 a7.5 7.5 0 1 0 15 0 a7.5 7.5 0 1 0 -15 0zM1376.13 511.96 a7.5 7.5 0 1 0 15 0 a7.5 7.5 0 1 0 -15 0zM1311.17 549.46 a7.5 7.5 0 1 0 15 0 a7.5 7.5 0 1 0 -15 0zM1246.22 511.96 a7.5 7.5 0 1 0 15 0 a7.5 7.5 0 1 0 -15 0zM1441.08 549.46 a7.5 7.5 0 1 0 15 0 a7.5 7.5 0 1 0 -15 0zM1441.08 624.46 a7.5 7.5 0 1 0 15 0 a7.5 7.5 0 1 0 -15 0zM1376.13 661.96 a7.5 7.5 0 1 0 15 0 a7.5 7.5 0 1 0 -15 0zM1311.17 624.46 a7.5 7.5 0 1 0 15 0 a7.5 7.5 0 1 0 -15 0zM1506.04 211.96 a7.5 7.5 0 1 0 15 0 a7.5 7.5 0 1 0 -15 0zM1506.04 286.96 a7.5 7.5 0 1 0 15 0 a7.5 7.5 0 1 0 -15 0zM1570.99 324.46 a7.5 7.5 0 1 0 15 0 a7.5 7.5 0 1 0 -15 0zM1570.99 399.46 a7.5 7.5 0 1 0 15 0 a7.5 7.5 0 1 0 -15 0zM1506.04 436.96 a7.5 7.5 0 1 0 15 0 a7.5 7.5 0 1 0 -15 0zM1506.04 511.96 a7.5 7.5 0 1 0 15 0 a7.5 7.5 0 1 0 -15 0zM1570.99 549.46 a7.5 7.5 0 1 0 15 0 a7.5 7.5 0 1 0 -15 0zM1570.99 624.46 a7.5 7.5 0 1 0 15 0 a7.5 7.5 0 1 0 -15 0zM1506.04 661.96 a7.5 7.5 0 1 0 15 0 a7.5 7.5 0 1 0 -15 0z" fill="#03305d"></path><path d="M161.99 339.49L205.29 364.49L205.29 414.49L161.99 439.49L118.69 414.49L118.69 364.49zM205.29 414.49L248.59 439.49L248.59 489.49L205.29 514.49L161.99 489.49L161.99 439.49zM421.8 39.49L465.11 64.49L465.11 114.49L421.8 139.49L378.5 114.49L378.5 64.49zM508.41 39.49L551.71 64.49L551.71 114.49L508.41 139.49L465.11 114.49L465.11 64.49zM595.01 39.49L638.32 64.49L638.32 114.49L595.01 139.49L551.71 114.49L551.71 64.49zM551.71 114.49L595.01 139.49L595.01 189.49L551.71 214.49L508.41 189.49L508.41 139.49zM595.01 189.49L638.32 214.49L638.32 264.49L595.01 289.49L551.71 264.49L551.71 214.49zM724.92 -35.51L768.22 -10.51L768.22 39.49L724.92 64.49L681.62 39.49L681.62 -10.51zM724.92 114.49L768.22 139.49L768.22 189.49L724.92 214.49L681.62 189.49L681.62 139.49zM768.22 489.49L811.53 514.49L811.53 564.49L768.22 589.49L724.92 564.49L724.92 514.49zM854.83 489.49L898.13 514.49L898.13 564.49L854.83 589.49L811.53 564.49L811.53 514.49zM941.43 39.49L984.74 64.49L984.74 114.49L941.43 139.49L898.13 114.49L898.13 64.49zM984.74 -35.51L1028.04 -10.51L1028.04 39.49L984.74 64.49L941.43 39.49L941.43 -10.51zM1028.04 39.49L1071.34 64.49L1071.34 114.49L1028.04 139.49L984.74 114.49L984.74 64.49zM1028.04 189.49L1071.34 214.49L1071.34 264.49L1028.04 289.49L984.74 264.49L984.74 214.49zM984.74 414.49L1028.04 439.49L1028.04 489.49L984.74 514.49L941.43 489.49L941.43 439.49zM1071.34 114.49L1114.64 139.49L1114.64 189.49L1071.34 214.49L1028.04 189.49L1028.04 139.49zM1201.25 39.49L1244.55 64.49L1244.55 114.49L1201.25 139.49L1157.94 114.49L1157.94 64.49zM1244.55 414.49L1287.85 439.49L1287.85 489.49L1244.55 514.49L1201.25 489.49L1201.25 439.49zM1287.85 489.49L1331.15 514.49L1331.15 564.49L1287.85 589.49L1244.55 564.49L1244.55 514.49zM1461.06 39.49L1504.37 64.49L1504.37 114.49L1461.06 139.49L1417.76 114.49L1417.76 64.49zM1417.76 264.49L1461.06 289.49L1461.06 339.49L1417.76 364.49L1374.46 339.49L1374.46 289.49z" stroke="rgba(6, 80, 156, 0.93)" stroke-width="2"></path></g><defs><mask id="SvgjsMask1001"><rect width="1440" height="560" fill="#ffffff"></rect></mask></defs></svg>